<svg id="Layer_1" data-name="Layer 1" xmlns="http://www.w3.org/2000/svg" viewBox="0 0 233.77 56.52"><defs><style>.cls-1,.cls-2{fill:none;stroke:#8dc126;stroke-miterlimit:10;stroke-width:0.5px;}.cls-1{opacity:0.25;}.cls-2,.cls-3{opacity:0.5;}.cls-3,.cls-4,.cls-5{fill:#8dc126;}.cls-4{opacity:0.75;}.cls-5{font-size:12px;}.cls-14,.cls-5{font-family:MinionPro-Regular, Minion Pro;}.cls-6{letter-spacing:0em;}.cls-7{letter-spacing:0.01em;}.cls-8{letter-spacing:-0.01em;}.cls-9{letter-spacing:0em;}.cls-10{letter-spacing:0em;}.cls-11{letter-spacing:0.01em;}.cls-12{letter-spacing:-0.01em;}.cls-13{letter-spacing:-0.01em;}.cls-14{font-size:36px;fill:#246ab5;}.cls-15{letter-spacing:0.01em;}.cls-16{letter-spacing:0em;}.cls-17{letter-spacing:0em;}.cls-18{letter-spacing:-0.01em;}.cls-19{letter-spacing:0.03em;}.cls-20{letter-spacing:-0.02em;}.cls-21{letter-spacing:0em;}</style></defs><title>logo</title><circle class="cls-1" cx="165.58" cy="28.19" r="2.5"/><circle class="cls-1" cx="191.58" cy="28.32" r="2.5"/><circle class="cls-1" cx="217.58" cy="28.19" r="2.5"/><circle class="cls-2" cx="178.58" cy="41.25" r="2.5"/><circle class="cls-2" cx="204.58" cy="41.19" r="2.5"/><circle class="cls-2" cx="231.02" cy="41.25" r="2.5"/><circle class="cls-2" cx="178.42" cy="15.38" r="2.5"/><circle class="cls-3" cx="204.19" cy="15.25" r="2.5"/><circle class="cls-3" cx="229.85" cy="15.44" r="2.5"/><line class="cls-1" x1="167.5" y1="26.33" x2="176.58" y2="17.25"/><line class="cls-1" x1="176.67" y1="39.33" x2="167.58" y2="30.25"/><line class="cls-1" x1="189.58" y1="26.44" x2="180.5" y2="17.35"/><line class="cls-1" x1="202.71" y1="39.25" x2="193.62" y2="30.17"/><line class="cls-1" x1="193.48" y1="26.35" x2="202.56" y2="17.27"/><circle class="cls-4" cx="191.17" cy="2.5" r="2.5"/><line class="cls-2" x1="180.5" y1="13.42" x2="189.58" y2="4.33"/><line class="cls-1" x1="206.69" y1="39.35" x2="215.77" y2="30.27"/><line class="cls-1" x1="219.65" y1="26.33" x2="228.4" y2="17.58"/><line class="cls-2" x1="215.71" y1="52.29" x2="206.62" y2="43.21"/><circle class="cls-4" cx="217.65" cy="54.02" r="2.5"/><line class="cls-1" x1="229.06" y1="39.58" x2="219.65" y2="30.17"/><text class="cls-5" transform="translate(42.66 45.77)">A <tspan class="cls-6" x="11.02" y="0">R</tspan><tspan x="18.5" y="0">e</tspan><tspan class="cls-7" x="23.6" y="0">g</tspan><tspan x="29.28" y="0">i</tspan><tspan class="cls-8" x="32.5" y="0">o</tspan><tspan class="cls-9" x="38.47" y="0">n</tspan><tspan class="cls-7" x="45" y="0">a</tspan><tspan x="50.33" y="0">l </tspan><tspan class="cls-10" x="56.09" y="0">R</tspan><tspan x="63.57" y="0">e</tspan><tspan class="cls-11" x="68.67" y="0">s</tspan><tspan class="cls-12" x="73.17" y="0">o</tspan><tspan x="79.16" y="0">u</tspan><tspan class="cls-13" x="85.53" y="0">r</tspan><tspan x="89.83" y="0">ce</tspan></text><text class="cls-14" transform="translate(0 35.52)"><tspan class="cls-15">D</tspan><tspan class="cls-16" x="26.68" y="0">e</tspan><tspan x="41.83" y="0">l</tspan><tspan class="cls-17" x="50.94" y="0">m</tspan><tspan class="cls-18" x="80.31" y="0">a</tspan><tspan class="cls-19" x="95.79" y="0">r</tspan><tspan x="110.19" y="0">va </tspan><tspan class="cls-20" x="150.84" y="0">I</tspan><tspan class="cls-21" x="162.54" y="0">n</tspan><tspan x="182.08" y="0">dex</tspan></text></svg>